<svg xmlns="http://www.w3.org/2000/svg" width="114" height="73" viewBox="0 0 114 73" fill="none">
  <path d="M28.0409 63.1146C28.2633 63.0187 28.5087 62.9891 28.7475 63.0293L82.8664 72.1315C83.7355 72.2777 83.9479 73.4297 83.188 73.8762L63.6574 85.3536C63.4038 85.5026 63.106 85.5581 62.8158 85.5104L3.18217 75.7155C2.25164 75.5627 2.09566 74.2902 2.96174 73.9171L28.0409 63.1146Z" fill="#15171F" stroke="#15171F" stroke-width="0.471974"/>
  <path d="M21.5464 36.5313C21.5464 34.453 23.1764 33.1184 23.9914 32.7109L25.5195 33.1694V36.9897L21.5464 36.5313Z" fill="#F5F7FF" stroke="#15171F" stroke-width="0.31465"/>
  <path d="M26.4365 29.9167C26.4365 26.9477 29.1206 25.3468 30.5625 24.7646L33.466 25.1139V30.5716L26.4365 29.9167Z" fill="#15171F" stroke="#15171F" stroke-width="0.31465"/>
  <path d="M26.2836 34.5873L24.4644 34.2939C22.934 34.0471 21.5464 35.2288 21.5464 36.779V39.9315C21.5464 41.1669 22.443 42.2198 23.6628 42.4165L26.2836 42.8392V34.5873Z" fill="#DCD7FF" stroke="#15171F" stroke-width="0.31465"/>
  <path d="M26.1308 31.5312L24.1407 32.5421C23.325 32.9564 23.5166 34.1726 24.4202 34.316L26.1308 34.5875V31.5312Z" fill="#15171F" stroke="#15171F" stroke-width="0.31465"/>
  <path d="M38.7048 21.4528C40.18 20.847 41.7847 20.6249 43.369 20.8071L84.0772 25.4892C85.5811 25.6622 85.9969 27.6513 84.6882 28.4122L78.4598 32.0336C76.6344 33.0949 74.5059 33.5135 72.4146 33.2226L30.4382 27.3834C29.1656 27.2064 28.945 25.4606 30.1335 24.9725L38.7048 21.4528Z" fill="#F5F7FF" stroke="#15171F" stroke-width="0.629299"/>
  <path d="M41.2457 20.4854L61.0421 22.8007L75.9485 24.4585L74.1147 28.126L71.8689 29.3311C69.2582 30.7319 66.267 31.2583 63.3349 30.8329L29.9719 25.992C29.6587 25.9466 29.601 25.5192 29.891 25.3923L31.3269 24.7641L41.2457 20.4854Z" fill="#15171F" stroke="#15171F" stroke-width="0.471974"/>
  <path d="M47.6806 0.31446C53.9814 0.31454 59.4334 5.89658 60.0507 13.0493C60.5621 18.9742 57.0475 25.2526 50.868 25.9388L46.315 26.5984L45.9403 25.2807C41.3334 23.5173 37.7215 18.7076 37.2332 13.0493C36.9214 9.4371 37.9426 6.17059 39.841 3.82153L39.4354 3.28604L42.4539 1.82908C42.7998 1.60833 43.1591 1.40917 43.5311 1.23366L44.1546 0.966306C45.2447 0.543678 46.4293 0.31446 47.6806 0.31446Z" fill="#F5F7FF" stroke="#15171F" stroke-width="0.629299"/>
  <path d="M67.6864 3.37012C74.0712 3.3702 79.5959 8.95207 80.2214 16.1049C80.7396 22.0298 77.1782 28.3083 70.9162 28.9944L66.3025 29.6541L65.9228 28.3364C61.2545 26.573 57.5945 21.7632 57.0996 16.1049C56.7837 12.4926 57.8185 9.22608 59.7422 6.877L59.4443 6.42639L62.39 4.88475C62.7405 4.664 63.1046 4.46484 63.4816 4.28933L64.1133 4.02197C65.218 3.59934 66.4183 3.37012 67.6864 3.37012Z" fill="#F5F7FF" stroke="#15171F" stroke-width="0.629299"/>
  <ellipse cx="10.8401" cy="12.1856" rx="10.8401" ry="12.1856" transform="matrix(1 0 0.0871557 0.996195 32.2437 2.47168)" fill="#DCD7FF" stroke="#15171F" stroke-width="0.629299"/>
  <ellipse cx="10.8401" cy="12.1856" rx="10.8401" ry="12.1856" transform="matrix(1 0 0.0871557 0.996195 52.3477 5.65625)" fill="#DCD7FF" stroke="#15171F" stroke-width="0.629299"/>
  <path d="M81.9076 73.0531L81.9576 71.6735C82.0174 70.0236 80.8937 68.5589 79.2872 68.1781C78.5646 68.0068 77.8467 68.494 77.7453 69.2297L77.1704 73.3995L81.9076 73.0531Z" fill="#DCD7FF" stroke="#15171F" stroke-width="0.471974"/>
  <path d="M32.8556 70.5986C32.8558 69.8273 33.5434 69.2377 34.3057 69.355L69.8805 74.8317C70.4945 74.9262 70.9476 75.4545 70.9476 76.0757L70.9476 78.612C70.9476 79.3846 70.2578 79.9748 69.4944 79.8554L33.9189 74.29C33.3062 74.1942 32.8546 73.6663 32.8548 73.0462L32.8556 70.5986Z" fill="#DCD7FF" stroke="#15171F" stroke-width="0.629299"/>
  <path d="M43.3703 63.0702C43.614 62.9329 43.8964 62.8807 44.1731 62.9218L79.1644 68.1213C80.0438 68.252 80.2715 69.4149 79.5063 69.8675L71.3361 74.7006C71.0846 74.8493 70.7892 74.906 70.5006 74.8607L35.5822 69.3916C34.6977 69.2531 34.4849 68.0761 35.2649 67.6366L43.3703 63.0702Z" fill="#DCD7FF" stroke="#15171F" stroke-width="0.629299"/>
  <path d="M81.1895 73.879L72.8571 78.9253C72.0183 79.4334 70.9464 78.8293 70.9466 77.8486L70.9468 75.7663C70.9469 75.3167 71.1867 74.9013 71.576 74.6765L79.9084 69.8648C80.7475 69.3803 81.7965 69.9859 81.7964 70.9549L81.7961 72.8026C81.7961 73.2428 81.5661 73.6509 81.1895 73.879Z" fill="#F5F7FF" stroke="#15171F" stroke-width="0.629299"/>
  <path d="M68.3693 69.5065C67.4863 70.3073 66.3103 70.37 65.5439 70.2635C65.2047 70.2164 65.0353 69.865 65.1479 69.5416L66.1006 66.8043C66.1971 66.5269 66.4727 66.3532 66.7646 66.3857L68.038 66.5276C68.363 66.5639 68.6061 66.843 68.5974 67.1699L68.5459 69.1002C68.5418 69.2539 68.4832 69.4032 68.3693 69.5065Z" fill="#15171F" stroke="#15171F" stroke-width="0.471974"/>
  <path d="M45.0825 65.0146C45.0825 64.2538 45.7523 63.6669 46.5065 63.7669L65.8908 66.3367C66.5165 66.4196 66.984 66.9532 66.984 67.5843L66.984 69.0345C66.984 69.8031 66.3011 70.3922 65.5408 70.2795L46.1565 67.4052C45.5395 67.3137 45.0825 66.784 45.0825 66.1602L45.0825 65.0146Z" fill="#DCD7FF" stroke="#15171F" stroke-width="0.629299"/>
  <path d="M51.6515 60.5635L73.5304 63.8219L67.2904 67.5104L45.4115 64.0764L51.6515 60.5635Z" fill="#D9D9D9" stroke="#15171F" stroke-width="0.471974"/>
  <path d="M73.2163 66.7273L67.9811 69.7716C67.5615 70.0157 67.0353 69.7128 67.0355 69.2274L67.0361 67.7925C67.0362 67.5639 67.1603 67.3533 67.3603 67.2424L72.5954 64.3398C73.015 64.1072 73.5301 64.4107 73.5299 64.8905L73.5293 66.1836C73.5292 66.4076 73.41 66.6147 73.2163 66.7273Z" fill="#DCD7FF" stroke="#15171F" stroke-width="0.629299"/>
  <path d="M78.2523 67.4107C76.2635 68.4505 73.531 68.4587 71.9469 68.2939C71.5122 68.2487 71.3021 67.77 71.5326 67.3986L73.6103 64.0511C73.7325 63.8543 73.953 63.7405 74.1843 63.7549L78.08 63.9984C78.4232 64.0198 78.6857 64.3129 78.6693 64.6564L78.562 66.9098C78.552 67.1199 78.4388 67.3132 78.2523 67.4107Z" fill="#15171F" stroke="#15171F" stroke-width="0.471974"/>
  <path d="M75.6426 36.0243C75.6426 34.5674 76.4175 33.2204 77.6771 32.4881L85.475 27.9545C86.9433 27.1008 88.7846 28.1601 88.7846 29.8586V58.9153C88.7846 60.514 87.9184 61.9873 86.5214 62.7646L78.9161 66.9966C77.448 67.8135 75.6426 66.752 75.6426 65.0719V36.0243Z" fill="#F5F7FF" stroke="#15171F" stroke-width="0.629299"/>
  <path d="M75.7954 66.3292V48.9084L76.6907 44.0341C77.0027 42.3354 77.8443 40.779 79.095 39.5879L80.3798 38.3643L84.2002 55.021L87.1036 56.2435C86.702 58.8537 85.6769 61.3286 84.1151 63.4583L83.1305 64.801L79.3101 66.7876L77.1707 67.3989L75.7954 66.3292Z" fill="#15171F" stroke="#15171F" stroke-width="0.31465"/>
  <path d="M25.9074 31.4315C25.8642 28.9171 28.0787 26.9596 30.5688 27.3109L72.1235 33.1745C74.1418 33.4593 75.6425 35.1865 75.6425 37.2248V64.1461C75.6425 66.62 73.4636 68.5277 71.0114 68.2007L29.9253 62.7226C27.9196 62.4551 26.4108 60.7614 26.3761 58.7382L25.9074 31.4315Z" fill="#DCD7FF" stroke="#15171F" stroke-width="0.629299"/>
  <path d="M80.5394 38.2652C81.2454 37.7019 82.2801 37.326 82.9844 37.3392L85.4282 37.3484L85.4283 38.6945C86.4365 39.6908 87.2532 41.3512 87.6848 43.5284C88.5596 47.9414 87.558 52.9905 85.4291 55.5655L85.27 56.899L82.1332 56.9429C80.0809 56.7556 78.2395 55.0773 77.4936 51.3151C76.5102 46.3542 77.8445 40.4154 80.5394 38.2652Z" fill="#DCD7FF" stroke="#15171F" stroke-width="0.629299"/>
  <path d="M90.3091 43.2305C91.2925 48.1851 89.9051 53.9425 87.2102 56.0901C84.5153 58.2376 81.5335 55.962 80.55 51.0074C79.5666 46.0528 80.954 40.2953 83.6489 38.1478C86.3438 36.0003 89.3256 38.2759 90.3091 43.2305Z" fill="#F5F7FF" stroke="#15171F" stroke-width="0.629299"/>
  <path d="M101.774 64.0813L87.4526 56.7116C86.5203 56.2318 85.3794 56.0674 84.6038 55.3617C83.7381 54.574 83.0278 53.0657 82.6724 51.0112C81.9493 46.8308 82.9694 41.9729 84.9509 40.1609C85.3089 39.8335 85.6739 39.6283 86.0358 39.5359L102.079 33.5186L101.774 64.0813Z" fill="#DCD7FF" stroke="#15171F" stroke-width="0.629299"/>
  <path d="M100.246 34.282C101.232 33.3949 102.246 32.9866 103.23 33.0073L106.431 32.8828L106.431 35.003C107.84 36.572 108.981 39.1871 109.584 42.6161C110.806 49.5665 109.406 57.5185 106.432 61.574L106.433 63.7436L102.385 64.0807C99.3288 63.7436 96.9921 60.8053 95.9502 54.8799C94.5764 47.0668 96.4811 37.6686 100.246 34.282Z" fill="#DCD7FF" stroke="#15171F" stroke-width="0.629299"/>
  <path d="M112.787 42.1678C114.161 49.9809 112.223 59.0601 108.458 62.4467C104.693 65.8332 100.527 62.2447 99.1536 54.4315C97.7798 46.6183 99.718 37.5392 103.483 34.1526C107.247 30.7661 111.413 34.3546 112.787 42.1678Z" fill="#F5F7FF" stroke="#15171F" stroke-width="0.629299"/>
  <path d="M111.476 44.2853C112.39 49.4815 111.101 55.5196 108.597 57.7718C106.093 60.0241 103.323 57.6375 102.409 52.4414C101.495 47.2452 102.784 41.2071 105.288 38.9548C107.792 36.7026 110.562 39.0891 111.476 44.2853Z" fill="#F5F7FF" stroke="#15171F" stroke-width="0.629299"/>
  <path d="M105.779 38.5831C108.118 37.1567 110.543 39.5419 111.382 44.3087C112.291 49.4709 110.997 55.4715 108.492 57.7117C107.619 58.4914 106.716 58.7122 105.869 58.4517C106.064 58.3334 106.257 58.1892 106.449 58.0176C108.955 55.7774 110.249 49.7766 109.34 44.6143C108.747 41.2485 107.364 39.0707 105.779 38.5831Z" fill="#DCD7FF" stroke="#15171F" stroke-width="0.629299"/>
  <path d="M29.4922 36.772C29.4922 34.313 31.6461 32.4099 34.0863 32.7127L67.7765 36.8932C69.825 37.1474 71.3632 38.8882 71.3632 40.9525V60.0966C71.3632 62.5968 69.1401 64.512 66.6674 64.1421L32.9773 59.1008C30.9743 58.8011 29.4922 57.0807 29.4922 55.0554V36.772Z" fill="#DCD7FF" stroke="#15171F" stroke-width="0.629299"/>
  <ellipse cx="63.7232" cy="43.6035" rx="3.66753" ry="3.82034" fill="#15171F" stroke="#15171F" stroke-width="0.471974"/>
  <ellipse cx="63.1119" cy="43.9093" rx="3.05627" ry="3.20909" fill="#DCD7FF" stroke="#15171F" stroke-width="0.629299"/>
  <path d="M47.3956 37.9502C52.2942 37.9503 56.6545 42.3973 57.1345 47.8831C57.532 52.4271 54.7996 57.2423 49.9952 57.7685L46.4554 58.2744L46.1641 57.2638C42.5824 55.9114 39.7743 52.2226 39.3947 47.8831C39.1523 45.1127 39.9462 42.6075 41.4221 40.8059L41.1068 40.3952L43.332 39.1118C43.6009 38.9425 43.8803 38.7898 44.1695 38.6552L44.6542 38.4501C45.5017 38.126 46.4227 37.9502 47.3956 37.9502Z" fill="#15171F" stroke="#15171F" stroke-width="0.471974"/>
  <ellipse cx="8.29336" cy="9.3228" rx="8.29336" ry="9.3228" transform="matrix(1 0 0.0871557 0.996195 35.7749 39.7832)" fill="#DCD7FF" stroke="#15171F" stroke-width="0.629299"/>
  <ellipse cx="3.65374" cy="4.10727" rx="3.65374" ry="4.10727" transform="matrix(1 0 0.0871557 0.996195 40.8691 44.9785)" fill="#DCD7FF" stroke="#15171F" stroke-width="0.471974"/>
  <ellipse cx="2.25003" cy="2.52932" rx="2.25003" ry="2.52932" transform="matrix(1 0 0.0871557 0.996195 61.6704 11.3457)" fill="#DCD7FF" stroke="#15171F" stroke-width="0.471974"/>
  <ellipse cx="2.25003" cy="2.52932" rx="2.25003" ry="2.52932" transform="matrix(1 0 0.0871557 0.996195 41.8184 7.90918)" fill="#DCD7FF" stroke="#15171F" stroke-width="0.471974"/>
  <ellipse cx="2.25003" cy="2.52932" rx="2.25003" ry="2.52932" transform="matrix(1 0 0.0871557 0.996195 38.2905 13.9561)" fill="#DCD7FF" stroke="#15171F" stroke-width="0.471974"/>
  <ellipse cx="2.25003" cy="2.52932" rx="2.25003" ry="2.52932" transform="matrix(1 0 0.0871557 0.996195 45.0938 14.7119)" fill="#DCD7FF" stroke="#15171F" stroke-width="0.471974"/>
  <ellipse cx="2.25003" cy="2.52932" rx="2.25003" ry="2.52932" transform="matrix(1 0 0.0871557 0.996195 61.4185 18.4004)" fill="#DCD7FF" stroke="#15171F" stroke-width="0.471974"/>
  <path d="M44.5234 44.9785C44.8831 44.9786 45.2355 45.038 45.5732 45.1465C44.1038 45.6467 43.1365 47.2137 43.2988 49.0703C43.4613 50.9269 44.7029 52.4938 46.2598 52.9941C45.9409 53.1026 45.5989 53.1621 45.2393 53.1621C43.2214 53.1621 41.4252 51.3301 41.2275 49.0703C41.03 46.8107 42.5056 44.9785 44.5234 44.9785Z" fill="#15171F"/>
  <path d="M44.5234 44.9785L44.5235 44.7425H44.5234V44.9785ZM45.5732 45.1465L45.6493 45.3699L46.3247 45.14L45.6454 44.9218L45.5732 45.1465ZM43.2988 49.0703L43.0637 49.0909L43.0637 49.0909L43.2988 49.0703ZM46.2598 52.9941L46.3358 53.2175L47.0111 52.9877L46.332 52.7695L46.2598 52.9941ZM45.2393 53.1621L45.2393 53.3981L45.2393 53.3981L45.2393 53.1621ZM41.2275 49.0703L40.9924 49.0909L40.9924 49.0909L41.2275 49.0703ZM44.5234 44.9785L44.5234 45.2145C44.8569 45.2145 45.185 45.2696 45.5011 45.3712L45.5732 45.1465L45.6454 44.9218C45.286 44.8064 44.9093 44.7426 44.5235 44.7425L44.5234 44.9785ZM45.5732 45.1465L45.4972 44.9231C43.9086 45.4638 42.8935 47.1442 43.0637 49.0909L43.2988 49.0703L43.5339 49.0498C43.3795 47.2832 44.2991 45.8295 45.6493 45.3699L45.5732 45.1465ZM43.2988 49.0703L43.0637 49.0909C43.2338 51.0343 44.5331 52.6871 46.1876 53.2188L46.2598 52.9941L46.332 52.7695C44.8727 52.3005 43.6887 50.8195 43.5339 49.0497L43.2988 49.0703ZM46.2598 52.9941L46.1837 52.7707C45.889 52.871 45.5726 52.9261 45.2392 52.9261L45.2393 53.1621L45.2393 53.3981C45.6253 53.3981 45.9929 53.3342 46.3358 53.2175L46.2598 52.9941ZM45.2393 53.1621V52.9261C43.3659 52.9261 41.6517 51.211 41.4626 49.0497L41.2275 49.0703L40.9924 49.0909C41.1988 51.4491 43.0768 53.3981 45.2393 53.3981V53.1621ZM41.2275 49.0703L41.4626 49.0498C41.2745 46.8976 42.6728 45.2145 44.5234 45.2145V44.9785V44.7425C42.3384 44.7425 40.7855 46.7237 40.9924 49.0909L41.2275 49.0703Z" fill="#15171F"/>
  <path d="M63.9194 11.3457C64.1412 11.3457 64.3587 11.3823 64.5669 11.4492C63.662 11.7573 63.0665 12.7219 63.1665 13.8652C63.2665 15.0081 64.0306 15.9718 64.9888 16.2803C64.7925 16.3471 64.5823 16.3848 64.3608 16.3848C63.1182 16.3848 62.0119 15.2568 61.8901 13.8652C61.7684 12.4738 62.677 11.346 63.9194 11.3457Z" fill="#15171F"/>
  <path d="M63.9194 11.3457L63.9194 11.1097L63.9194 11.1097L63.9194 11.3457ZM64.5669 11.4492L64.643 11.6726L65.318 11.4428L64.6391 11.2246L64.5669 11.4492ZM63.1665 13.8652L62.9314 13.8858L62.9314 13.8858L63.1665 13.8652ZM64.9888 16.2803L65.0648 16.5037L65.7396 16.2741L65.0611 16.0556L64.9888 16.2803ZM64.3608 16.3848L64.3608 16.6208L64.3609 16.6208L64.3608 16.3848ZM61.8901 13.8652L61.655 13.8858L61.655 13.8858L61.8901 13.8652ZM63.9194 11.3457V11.5817C64.115 11.5817 64.3082 11.614 64.4947 11.6739L64.5669 11.4492L64.6391 11.2246C64.4091 11.1506 64.1673 11.1097 63.9194 11.1097V11.3457ZM64.5669 11.4492L64.4908 11.2258C63.4668 11.5745 62.8235 12.6524 62.9314 13.8858L63.1665 13.8652L63.4016 13.8447C63.3094 12.7914 63.8572 11.9401 64.643 11.6726L64.5669 11.4492ZM63.1665 13.8652L62.9314 13.8858C63.039 15.1156 63.8608 16.165 64.9164 16.5049L64.9888 16.2803L65.0611 16.0556C64.2003 15.7785 63.494 14.9006 63.4016 13.8447L63.1665 13.8652ZM64.9888 16.2803L64.9128 16.0569C64.7397 16.1157 64.5552 16.1488 64.3608 16.1488L64.3608 16.3848L64.3609 16.6208C64.6095 16.6207 64.8452 16.5784 65.0648 16.5037L64.9888 16.2803ZM64.3608 16.3848V16.1488C63.2627 16.1488 62.2384 15.1377 62.1252 13.8447L61.8901 13.8652L61.655 13.8858C61.7854 15.3759 62.9737 16.6208 64.3608 16.6208V16.3848ZM61.8901 13.8652L62.1252 13.8447C62.0129 12.5608 62.8442 11.5819 63.9195 11.5817L63.9194 11.3457L63.9194 11.1097C62.5098 11.11 61.5239 12.3868 61.655 13.8858L61.8901 13.8652Z" fill="#15171F"/>
  <path d="M44.0679 7.9082C44.2893 7.9082 44.5064 7.94497 44.7144 8.01172C43.8096 8.31987 43.2139 9.28545 43.314 10.4287C43.4141 11.5717 44.1788 12.5355 45.1372 12.8438C44.9409 12.9105 44.7307 12.9482 44.5093 12.9482C43.2667 12.9482 42.1605 11.8201 42.0386 10.4287C41.9168 9.03718 42.8253 7.90831 44.0679 7.9082Z" fill="#15171F"/>
  <path d="M44.0679 7.9082L44.0679 7.67222L44.0679 7.67222L44.0679 7.9082ZM44.7144 8.01172L44.7904 8.2351L45.4658 8.00507L44.7865 7.78702L44.7144 8.01172ZM43.314 10.4287L43.0789 10.4493L43.0789 10.4493L43.314 10.4287ZM45.1372 12.8438L45.2132 13.0672L45.8883 12.8375L45.2095 12.6191L45.1372 12.8438ZM44.5093 12.9482L44.5093 13.1842L44.5093 13.1842L44.5093 12.9482ZM42.0386 10.4287L41.8035 10.4493L41.8035 10.4493L42.0386 10.4287ZM44.0679 7.9082V8.14419C44.263 8.14419 44.4558 8.17658 44.6422 8.23642L44.7144 8.01172L44.7865 7.78702C44.557 7.71337 44.3156 7.67222 44.0679 7.67222V7.9082ZM44.7144 8.01172L44.6383 7.78833C43.6143 8.13709 42.971 9.21603 43.0789 10.4493L43.314 10.4287L43.5491 10.4081C43.4569 9.35488 44.0049 8.50266 44.7904 8.2351L44.7144 8.01172ZM43.314 10.4287L43.0789 10.4493C43.1866 11.6793 44.0091 12.7288 45.0649 13.0684L45.1372 12.8438L45.2095 12.6191C44.3485 12.3422 43.6416 11.4641 43.5491 10.4081L43.314 10.4287ZM45.1372 12.8438L45.0612 12.6203C44.8882 12.6792 44.7036 12.7122 44.5092 12.7123L44.5093 12.9482L44.5093 13.1842C44.7578 13.1842 44.9937 13.1419 45.2132 13.0672L45.1372 12.8438ZM44.5093 12.9482V12.7123C43.4112 12.7123 42.3869 11.7011 42.2737 10.4081L42.0386 10.4287L41.8035 10.4493C41.934 11.9392 43.1222 13.1842 44.5093 13.1842V12.9482ZM42.0386 10.4287L42.2737 10.4081C42.1613 9.12402 42.9926 8.14428 44.0679 8.14419L44.0679 7.9082L44.0679 7.67222C42.658 7.67233 41.6723 8.95035 41.8035 10.4493L42.0386 10.4287Z" fill="#15171F"/>
  <path d="M40.54 13.9561C40.7618 13.9561 40.9793 13.9927 41.1875 14.0596C40.2826 14.3675 39.6862 15.3323 39.7861 16.4756C39.8861 17.6185 40.6511 18.5822 41.6094 18.8906C41.4131 18.9574 41.2029 18.9951 40.9814 18.9951C39.7388 18.9951 38.6325 17.8672 38.5107 16.4756C38.3891 15.0842 39.2976 13.9563 40.54 13.9561Z" fill="#15171F"/>
  <path d="M40.54 13.9561L40.54 13.7201L40.54 13.7201L40.54 13.9561ZM41.1875 14.0596L41.2635 14.283L41.9388 14.0532L41.2597 13.8349L41.1875 14.0596ZM39.7861 16.4756L39.551 16.4961L39.551 16.4962L39.7861 16.4756ZM41.6094 18.8906L41.6854 19.114L42.3602 18.8844L41.6817 18.666L41.6094 18.8906ZM40.9814 18.9951L40.9814 19.2311L40.9815 19.2311L40.9814 18.9951ZM38.5107 16.4756L38.2757 16.4961L38.2757 16.4962L38.5107 16.4756ZM40.54 13.9561V14.192C40.7357 14.192 40.9288 14.2243 41.1153 14.2842L41.1875 14.0596L41.2597 13.8349C41.0297 13.761 40.7879 13.7201 40.54 13.7201V13.9561ZM41.1875 14.0596L41.1115 13.8362C40.0875 14.1846 39.4433 15.2626 39.551 16.4961L39.7861 16.4756L40.0212 16.455C39.9292 15.4019 40.4777 14.5504 41.2635 14.283L41.1875 14.0596ZM39.7861 16.4756L39.551 16.4962C39.6587 17.7261 40.4815 18.7755 41.5371 19.1153L41.6094 18.8906L41.6817 18.666C40.8207 18.3889 40.1136 17.5109 40.0212 16.455L39.7861 16.4756ZM41.6094 18.8906L41.5334 18.6672C41.3603 18.7261 41.1758 18.7591 40.9814 18.7591L40.9814 18.9951L40.9815 19.2311C41.2301 19.2311 41.4658 19.1887 41.6854 19.114L41.6094 18.8906ZM40.9814 18.9951V18.7591C39.8833 18.7591 38.859 17.7481 38.7458 16.455L38.5107 16.4756L38.2757 16.4962C38.406 17.9863 39.5943 19.2311 40.9814 19.2311V18.9951ZM38.5107 16.4756L38.7458 16.455C38.6336 15.1712 39.4649 14.1922 40.5401 14.192L40.54 13.9561L40.54 13.7201C39.1304 13.7203 38.1447 14.9973 38.2757 16.4961L38.5107 16.4756Z" fill="#15171F"/>
  <path d="M47.3438 14.7119C47.5652 14.712 47.7822 14.7486 47.9902 14.8154C47.0853 15.1235 46.4898 16.089 46.5898 17.2324C46.69 18.3751 47.454 19.339 48.4121 19.6475C48.2158 19.7142 48.0056 19.752 47.7842 19.752C46.5416 19.752 45.4354 18.6239 45.3135 17.2324C45.1917 15.8408 46.1011 14.7119 47.3438 14.7119Z" fill="#15171F"/>
  <path d="M47.3438 14.7119L47.3438 14.4759H47.3438V14.7119ZM47.9902 14.8154L48.0663 15.0388L48.7416 14.8089L48.0624 14.5908L47.9902 14.8154ZM46.5898 17.2324L46.3548 17.253L46.3548 17.253L46.5898 17.2324ZM48.4121 19.6475L48.4881 19.8709L49.1631 19.6413L48.4844 19.4228L48.4121 19.6475ZM47.7842 19.752L47.7842 19.9879L47.7842 19.9879L47.7842 19.752ZM45.3135 17.2324L45.0784 17.253L45.0784 17.253L45.3135 17.2324ZM47.3438 14.7119L47.3437 14.9479C47.539 14.9479 47.7317 14.9802 47.9181 15.0401L47.9902 14.8154L48.0624 14.5908C47.8328 14.517 47.5914 14.476 47.3438 14.4759L47.3438 14.7119ZM47.9902 14.8154L47.9142 14.592C46.89 14.9407 46.2469 16.0197 46.3548 17.253L46.5898 17.2324L46.8249 17.2119C46.7328 16.1584 47.2806 15.3063 48.0663 15.0388L47.9902 14.8154ZM46.5898 17.2324L46.3548 17.253C46.4625 18.4826 47.2842 19.5323 48.3398 19.8721L48.4121 19.6475L48.4844 19.4228C47.6238 19.1457 46.9174 18.2676 46.8249 17.2118L46.5898 17.2324ZM48.4121 19.6475L48.3361 19.424C48.163 19.4829 47.9784 19.516 47.7842 19.516L47.7842 19.752L47.7842 19.9879C48.0328 19.9879 48.2686 19.9455 48.4881 19.8709L48.4121 19.6475ZM47.7842 19.752V19.516C46.6861 19.516 45.6618 18.5048 45.5486 17.2118L45.3135 17.2324L45.0784 17.253C45.2089 18.7429 46.3971 19.9879 47.7842 19.9879V19.752ZM45.3135 17.2324L45.5486 17.2119C45.4362 15.9278 46.2683 14.9479 47.3438 14.9479V14.7119V14.4759C45.9339 14.4759 44.9472 15.7539 45.0784 17.253L45.3135 17.2324Z" fill="#15171F"/>
  <path d="M63.668 18.4004C63.8897 18.4004 64.1072 18.437 64.3154 18.5039C63.4106 18.8119 62.8151 19.7767 62.915 20.9199C63.015 22.0629 63.779 23.0275 64.7373 23.3359C64.5411 23.4027 64.3308 23.4404 64.1094 23.4404C62.8667 23.4404 61.7604 22.3115 61.6387 20.9199C61.5171 19.5286 62.4256 18.4006 63.668 18.4004Z" fill="#15171F"/>
  <path d="M63.668 18.4004L63.668 18.1644L63.6679 18.1644L63.668 18.4004ZM64.3154 18.5039L64.3915 18.7273L65.0667 18.4975L64.3876 18.2792L64.3154 18.5039ZM62.915 20.9199L62.6799 20.9405L62.6799 20.9405L62.915 20.9199ZM64.7373 23.3359L64.8133 23.5594L65.4884 23.3298L64.8096 23.1113L64.7373 23.3359ZM64.1094 23.4404L64.1094 23.6764L64.1094 23.6764L64.1094 23.4404ZM61.6387 20.9199L61.4036 20.9405L61.4036 20.9405L61.6387 20.9199ZM63.668 18.4004V18.6364C63.8636 18.6364 64.0568 18.6687 64.2432 18.7286L64.3154 18.5039L64.3876 18.2792C64.1577 18.2053 63.9158 18.1644 63.668 18.1644V18.4004ZM64.3154 18.5039L64.2394 18.2805C63.2153 18.6291 62.5722 19.7072 62.6799 20.9405L62.915 20.9199L63.1501 20.8994C63.0581 19.8461 63.6058 18.9947 64.3915 18.7273L64.3154 18.5039ZM62.915 20.9199L62.6799 20.9405C62.7875 22.1703 63.6091 23.2207 64.665 23.5606L64.7373 23.3359L64.8096 23.1113C63.9489 22.8343 63.2425 21.9555 63.1501 20.8994L62.915 20.9199ZM64.7373 23.3359L64.6613 23.1125C64.4883 23.1714 64.3036 23.2044 64.1094 23.2044L64.1094 23.4404L64.1094 23.6764C64.3579 23.6764 64.5938 23.634 64.8133 23.5594L64.7373 23.3359ZM64.1094 23.4404V23.2044C63.0113 23.2044 61.9869 22.1925 61.8738 20.8994L61.6387 20.9199L61.4036 20.9405C61.5339 22.4305 62.7221 23.6764 64.1094 23.6764V23.4404ZM61.6387 20.9199L61.8738 20.8994C61.7616 19.6156 62.5929 18.6366 63.668 18.6364L63.668 18.4004L63.6679 18.1644C62.2584 18.1647 61.2726 19.4417 61.4036 20.9405L61.6387 20.9199Z" fill="#15171F"/>
</svg>
