<svg version="1.1" id="Layer_1" xmlns:x="ns_extend;" xmlns:i="ns_ai;" xmlns:graph="ns_graphs;" xmlns="http://www.w3.org/2000/svg" xmlns:xlink="http://www.w3.org/1999/xlink" x="0px" y="0px" viewBox="0 0 241.5 75" style="enable-background:new 0 0 241.5 75;" xml:space="preserve">
 <style type="text/css">
  .st0{fill:url(#SVGID_1_);}
	.st1{fill:#C51EA9;}
	.st2{fill:url(#SVGID_2_);}
	.st3{fill:url(#SVGID_3_);}
	.st4{fill-rule:evenodd;clip-rule:evenodd;fill:#FFFFFF;}
	.st5{fill:#262626;}
 </style>
 <metadata>
  <sfw xmlns="ns_sfw;">
   <slices>
   </slices>
   <sliceSourceBounds bottomLeftOrigin="true" height="75" width="241.5" x="-125.6" y="0">
   </sliceSourceBounds>
  </sfw>
 </metadata>
 <g>
  <linearGradient id="SVGID_1_" gradientUnits="userSpaceOnUse" x1="43.5686" y1="116" x2="43.5686" y2="41" gradientTransform="matrix(1 0 0 -1 0 116)">
   <stop offset="0" style="stop-color:#F33D5E">
   </stop>
   <stop offset="0.4999" style="stop-color:#C51EA9">
   </stop>
   <stop offset="1" style="stop-color:#4F3CE4">
   </stop>
  </linearGradient>
  <path class="st0" d="M10.8,19.2C10.8,8.6,19.1,0,29.5,0c20.1,0,37.6,15.1,46.9,37.5h0C67.1,59.9,49.6,75,29.5,75
		c-10.4,0-18.8-8.6-18.8-19.2c0-8.6,5.5-15.9,13.1-18.3C16.3,35,10.8,27.8,10.8,19.2z">
  </path>
  <path class="st1" d="M10.8,52.5c-6,0-10.8-3.4-10.8-7.7c0-3.4,3.2-6.3,7.6-7.3h30.4C32.6,46.4,22.4,52.5,10.8,52.5z">
  </path>
  <linearGradient id="SVGID_2_" gradientUnits="userSpaceOnUse" x1="37.9444" y1="86.0023" x2="9.094947e-13" y2="86.0023" gradientTransform="matrix(1 0 0 -1 0 116)">
   <stop offset="0" style="stop-color:#C51EA9;stop-opacity:0">
   </stop>
   <stop offset="1" style="stop-color:#F33D5E">
   </stop>
  </linearGradient>
  <path class="st2" d="M10.8,22.5c-6,0-10.8,3.4-10.8,7.7c0,3.4,3.2,6.3,7.6,7.3h30.4C32.6,28.5,22.4,22.5,10.8,22.5z">
  </path>
  <linearGradient id="SVGID_3_" gradientUnits="userSpaceOnUse" x1="45.0539" y1="78.506" x2="45.0539" y2="60.1308" gradientTransform="matrix(1 0 0 -1 0 116)">
   <stop offset="0" style="stop-color:#F33D5E;stop-opacity:0">
   </stop>
   <stop offset="1" style="stop-color:#FFFFFF">
   </stop>
  </linearGradient>
  <path class="st3" d="M37.7,55.9c-5.4,0-9.8-4.2-9.8-9.4c0-4.2,2.9-7.8,6.9-9h27.4C57.3,48.5,48.2,55.9,37.7,55.9z">
  </path>
  <path class="st4" d="M56.2,30.1c2.1,0,3.8-1.7,3.8-3.8s-1.7-3.8-3.8-3.8s-3.8,1.7-3.8,3.8S54,30.1,56.2,30.1z">
  </path>
  <path class="st5" d="M93.1,48.6h7.3V25.8h-7.3V48.6z M96.8,23.2c2.1,0,3.7-1.6,3.7-3.5c0-1.9-1.7-3.5-3.7-3.5c-2,0-3.7,1.5-3.7,3.5
		C93.1,21.6,94.7,23.2,96.8,23.2z">
  </path>
  <path class="st5" d="M112.3,35.6c0-2.6,1.5-4.1,3.8-4.1s3.7,1.5,3.7,4v13.1h7.3V34.1c0-5.1-3.1-8.6-7.9-8.6c-3.4,0-5.9,1.7-6.9,4.5
		h-0.3v-4.2H105v22.8h7.3V35.6z">
  </path>
  <path class="st5" d="M152.8,25.8h-7.6L141,41.5h-0.2l-4.2-15.7h-7.6l7.8,22.8h8.3L152.8,25.8z">
  </path>
  <path class="st5" d="M155.6,48.6h7.3V25.8h-7.3V48.6z M159.2,23.2c2.1,0,3.7-1.6,3.7-3.5c0-1.9-1.7-3.5-3.7-3.5
		c-2,0-3.7,1.5-3.7,3.5C155.5,21.6,157.2,23.2,159.2,23.2z">
  </path>
  <path class="st5" d="M175.8,49c3.4,0,5.5-1.9,6.4-4h0.2v3.7h7.2V18.2h-7.3v11.5h-0.1c-0.9-2.1-2.9-4.2-6.4-4.2
		c-4.8,0-9.1,3.7-9.1,11.7C166.7,45,170.8,49,175.8,49z M178.3,43.3c-2.7,0-4.2-2.4-4.2-6.1c0-3.7,1.5-6,4.2-6c2.7,0,4.2,2.3,4.2,6
		C182.5,40.9,181,43.3,178.3,43.3z">
  </path>
  <path class="st5" d="M204.8,49.1c6,0,9.9-2.9,10.7-7.4l-6.7-0.2c-0.6,1.5-2,2.3-3.9,2.3c-2.8,0-4.5-1.9-4.5-4.6V39h15.2v-1.8
		c0-7.5-4.6-11.6-11-11.6c-6.9,0-11.3,4.7-11.3,11.8C193.3,44.6,197.6,49.1,204.8,49.1z M200.4,34.8c0.1-2.3,1.9-4,4.3-4
		c2.4,0,4.1,1.7,4.1,4H200.4z">
  </path>
  <path class="st5" d="M230,49.1c7.2,0,11.5-4.7,11.5-11.8c0-7-4.4-11.8-11.5-11.8c-7.2,0-11.5,4.7-11.5,11.8
		C218.5,44.3,222.8,49.1,230,49.1z M230,43.6c-2.7,0-4.2-2.6-4.2-6.3c0-3.8,1.5-6.4,4.2-6.4c2.6,0,4.1,2.6,4.1,6.4
		C234.1,41,232.6,43.6,230,43.6z">
  </path>
 </g>
</svg>