<?xml version="1.0" encoding="UTF-8"?>
<!-- Generated by Pixelmator Pro 3.6.12 -->
<svg width="115" height="24" viewBox="0 0 115 24" xmlns="http://www.w3.org/2000/svg">
    <path id="Path" fill="#000000" stroke="none" d="M 32.625999 0.367001 L 23.823999 21.955999 C 23.319651 23.191671 22.117634 23.999208 20.783001 23.999001 L 11.888 23.999001 C 10.55438 23.999573 9.352931 23.193336 8.848 21.959 L 0.045125 0.117895 L 9.676 0.346001 L 16.348 18.141001 L 22.966999 0.348 L 32.625999 0.367001 Z M 33.438999 0.267 L 33.706001 24 L 58.435001 23.733 L 58.168999 17.615 L 41.983002 17.348 L 42.25 15.155 L 58.074001 14.888 L 57.806999 8.815 L 42.25 8.815 L 41.983002 6.652 L 58.168999 6.385 L 58.169998 0 L 33.438999 0.267 Z M 59.558998 0.267 L 59.827 24 L 84.556 23.733 L 84.290001 17.615 L 68.103996 17.348 L 68.371002 15.155 L 84.195 14.888 L 83.928001 8.815 L 68.370003 8.815 L 68.102997 6.652 L 84.290001 6.385 L 84.290001 0 L 59.560001 0.267 Z M 85.681999 23.733 L 102.708 24 C 106.375999 24 109.334999 23.049 111.598999 21.132 C 113.862999 19.23 114.995003 16.181999 114.995003 11.985 C 114.995003 7.788 113.862999 4.74 111.598999 2.837 C 109.334999 0.950001 106.376999 0 102.708 0 L 85.681999 0.267 L 85.681999 23.733 Z M 94.491997 17.57 L 94.224998 6.697001 L 100.746002 6.43 C 102.678001 6.43 104.112 6.853001 105.047997 7.698 C 105.984001 8.543 106.450996 9.977 106.450996 11.985 C 106.450996 13.993 105.984001 15.457 105.047997 16.302 C 104.112 17.148001 102.678001 17.57 100.746002 17.57 L 94.490997 17.57 Z"/>
</svg>
